<?xml version="1.0" encoding="UTF-8"?>
<svg id="Layer_1" data-name="Layer 1" xmlns="http://www.w3.org/2000/svg" xmlns:xlink="http://www.w3.org/1999/xlink" version="1.1" viewBox="0 0 384 512">
  <defs>
    <style>
      .cls-1 {
        fill: url(#linear-gradient);
        isolation: isolate;
      }

      .cls-1, .cls-2 {
        stroke-width: 0px;
      }

      .cls-2 {
        fill: #000;
      }
    </style>
    <linearGradient id="linear-gradient" x1="192" y1="0" x2="192" y2="288" gradientUnits="userSpaceOnUse">
      <stop offset="0" stop-color="#ff18ff"/>
      <stop offset="1" stop-color="blue"/>
    </linearGradient>
  </defs>
  <path class="cls-1" d="M162.4,6c-1.5-3.6-5-6-8.9-6h-19c-3.9,0-7.5,2.4-8.9,6l-20.7,51.7c-3.2,8-14.6,8-17.8,0L66.4,6c-1.5-3.6-5-6-8.9-6h-9.5C21.5,0,0,21.5,0,48v240h384V48c0-26.5-21.5-48-48-48h-105.5c-3.9,0-7.5,2.4-8.9,6l-20.7,51.7c-3.2,8-14.6,8-17.8,0l-20.7-51.7Z"/>
  <path class="cls-2" d="M0,288h384v32c0,35.3-28.7,64-64,64h-64v64c0,35.3-28.7,64-64,64s-64-28.7-64-64v-64h-64c-35.3,0-64-28.7-64-64v-32ZM192,464c8.8,0,16-7.2,16-16s-7.2-16-16-16-16,7.2-16,16,7.2,16,16,16Z"/>
</svg>